<svg width="51" height="51" viewBox="0 0 51 51" fill="none" xmlns="http://www.w3.org/2000/svg">
<path d="M15.9813 44.6234C17.3013 44.599 18.3517 43.5092 18.3273 42.1892C18.303 40.8691 17.2131 39.8188 15.8931 39.8431C14.573 39.8675 13.5227 40.9573 13.547 42.2774C13.5714 43.5974 14.6612 44.6478 15.9813 44.6234Z" fill="#3A3A3A"/>
<path d="M40.6922 42.2909C40.7237 40.971 39.6792 39.8755 38.3593 39.844C37.0394 39.8126 35.9439 40.8571 35.9124 42.177C35.881 43.4969 36.9255 44.5924 38.2454 44.6238C39.5653 44.6553 40.6608 43.6108 40.6922 42.2909Z" fill="#3A3A3A"/>
<path d="M46.1986 13.1682C46.1289 12.9291 45.9197 12.7698 45.6807 12.7498L13.2379 9.61215C12.959 9.58227 12.6203 9.40297 12.4908 9.14399C12.1123 8.43676 11.8732 8.03832 11.2756 7.29125C10.5086 6.35492 9.06426 6.38481 6.41465 6.36488C5.51816 6.35492 4.79102 6.88285 4.79102 7.76938C4.79102 8.63598 5.47832 9.17387 6.34492 9.17387C7.21152 9.17387 8.4666 9.22367 8.93477 9.36313C9.40293 9.50258 9.78145 10.2696 9.9209 10.937C9.9209 10.9469 9.9209 10.9569 9.93086 10.9668C9.95078 11.0864 10.1301 11.9829 10.1301 11.9928L14.1145 33.0702C14.3535 34.5145 14.8416 35.7098 15.5588 36.6262C16.3955 37.702 17.5012 38.2399 18.8359 38.2399H42.4035C43.1605 38.2399 43.808 37.6621 43.8379 36.9051C43.8777 36.1082 43.2402 35.4508 42.4434 35.4508H18.816C18.6168 35.4508 18.3279 35.4508 17.9893 35.1719C17.6406 34.8731 17.1625 34.1858 16.8438 32.5821L16.4154 30.2213C16.4154 30.1914 16.4254 30.1715 16.4553 30.1616L44.1168 25.4799C44.3758 25.4401 44.575 25.2309 44.6049 24.962L46.1986 13.4272C46.2186 13.3475 46.2186 13.2579 46.1986 13.1682Z" fill="#3A3A3A"/>
</svg>
