<svg width="81" height="117" viewBox="0 0 81 117" fill="none" xmlns="http://www.w3.org/2000/svg">
<path d="M74.25 0C75.5625 0 76.6875 0.380859 77.625 1.14258C78 1.37109 78.2812 1.6377 78.4688 1.94238C78.6562 2.24707 78.7969 2.5708 78.8906 2.91357C78.9844 3.25635 79.0312 3.59912 79.0312 3.94189C79.0312 4.28467 78.9844 4.6084 78.8906 4.91309C78.7969 5.21777 78.6562 5.52246 78.4688 5.82715C78.2812 6.13184 78 6.43652 77.625 6.74121L13.5 58.8428L76.7812 110.259C77.3438 110.716 77.7422 111.287 77.9766 111.973C78.2109 112.658 78.2109 113.344 77.9766 114.029C77.7422 114.715 77.3438 115.286 76.7812 115.743C75.8438 116.505 74.6953 116.886 73.3359 116.886C71.9766 116.886 70.8281 116.505 69.8906 115.743L3.23438 61.585C2.29688 60.8232 1.82812 59.9092 1.82812 58.8428C1.82812 57.7764 2.29688 56.8623 3.23438 56.1006L70.875 1.14258C71.8125 0.380859 72.9375 0 74.25 0Z" fill="black"/>
</svg>
