<svg width="81" height="117" viewBox="0 0 81 117" fill="none" xmlns="http://www.w3.org/2000/svg">
<path d="M6.75 0C5.4375 0 4.3125 0.380859 3.375 1.14258C3 1.37109 2.71875 1.6377 2.53125 1.94238C2.34375 2.24707 2.20312 2.5708 2.10938 2.91357C2.01562 3.25635 1.96875 3.59912 1.96875 3.94189C1.96875 4.28467 2.01562 4.6084 2.10938 4.91309C2.20312 5.21777 2.34375 5.52246 2.53125 5.82715C2.71875 6.13184 3 6.43652 3.375 6.74121L67.5 58.8428L4.21875 110.259C3.65625 110.716 3.25781 111.287 3.02344 111.973C2.78906 112.658 2.78906 113.344 3.02344 114.029C3.25781 114.715 3.65625 115.286 4.21875 115.743C5.15625 116.505 6.30469 116.886 7.66406 116.886C9.02344 116.886 10.1719 116.505 11.1094 115.743L77.7656 61.585C78.7031 60.8232 79.1719 59.9092 79.1719 58.8428C79.1719 57.7764 78.7031 56.8623 77.7656 56.1006L10.125 1.14258C9.1875 0.380859 8.0625 0 6.75 0Z" fill="black"/>
</svg>
