<svg width="51" height="51" viewBox="0 0 51 51" fill="none" xmlns="http://www.w3.org/2000/svg">
<path d="M44.1768 41.8561L33.5385 31.1182C35.6203 28.5084 36.8754 25.2014 36.8754 21.6055C36.8754 13.1885 30.0521 6.36523 21.6252 6.36523C13.1982 6.36523 6.375 13.1984 6.375 21.6154C6.375 30.0324 13.1982 36.8557 21.6252 36.8557C25.2709 36.8557 28.6078 35.5807 31.2375 33.449L41.8061 44.1172C42.1248 44.4559 42.5631 44.6252 42.9914 44.6252C43.3998 44.6252 43.8082 44.4758 44.117 44.177C44.7744 43.5494 44.7943 42.5135 44.1768 41.8561ZM21.6252 33.5785C18.4277 33.5785 15.4195 32.3334 13.1584 30.0723C10.8973 27.8111 9.65215 24.8029 9.65215 21.6154C9.65215 18.418 10.8973 15.4098 13.1584 13.1586C15.4195 10.8975 18.4277 9.65234 21.6252 9.65234C24.8227 9.65234 27.8309 10.8975 30.092 13.1586C32.3531 15.4197 33.5982 18.4279 33.5982 21.6154C33.5982 24.8129 32.3531 27.8211 30.092 30.0723C27.8309 32.3334 24.8227 33.5785 21.6252 33.5785Z" fill="#3A3A3A"/>
</svg>
