<svg width="72" height="81" viewBox="0 0 72 81" fill="none" xmlns="http://www.w3.org/2000/svg">
<path d="M22.5594 40.5002H62.8794C64.7344 40.5002 66.3182 41.0205 67.6307 42.0611C68.9432 43.1018 69.5994 44.3814 69.5994 45.9002C69.5994 47.4189 68.9344 48.6986 67.6044 49.7393C66.2744 50.7799 64.6994 51.3002 62.8794 51.3002H60.3594L61.4094 76.9502C61.4444 77.3158 61.2957 77.6322 60.9632 77.8994C60.6307 78.1666 60.2369 78.3002 59.7819 78.3002H56.1594C55.7394 78.3002 55.3719 78.1666 55.0569 77.8994C54.7419 77.6322 54.5669 77.3158 54.5319 76.9502L53.5869 51.3002H25.9194L20.5644 76.9924C20.3894 77.8643 19.8469 78.3002 18.9369 78.3002H15.0519C14.5969 78.3002 14.2032 78.1666 13.8707 77.8994C13.5382 77.6322 13.3894 77.3299 13.4244 76.9924L18.4119 51.3002C18.2719 51.2439 17.5019 51.1666 16.1019 51.0682C14.7019 50.9697 13.5382 50.5971 12.6107 49.9502C11.6832 49.3033 10.9394 48.1783 10.3794 46.5752C9.81941 44.9158 9.35566 42.8064 8.98816 40.2471C8.62066 37.6877 8.27066 34.5729 7.93816 30.9025C7.60566 27.2322 7.36941 24.8205 7.22941 23.6674C7.05441 22.0924 6.20566 19.6104 4.68316 16.2213C3.16066 12.8322 2.39941 10.1252 2.39941 8.1002C2.39941 6.80645 2.95066 5.58301 4.05316 4.42988C5.15566 3.27676 6.84441 2.7002 9.11941 2.7002C11.1844 2.7002 12.7244 3.22754 13.7394 4.28223C14.7544 5.33691 15.6819 6.9752 16.5219 9.19707C19.7069 17.5783 21.7194 28.0127 22.5594 40.5002Z" fill="#646464"/>
</svg>
