<svg width="66" height="79" viewBox="0 0 66 79" fill="none" xmlns="http://www.w3.org/2000/svg">
<g clip-path="url(#clip0)">
<path d="M63.9375 79.3857H55.6875C55.1289 79.3857 54.6455 79.1414 54.2373 78.6528C53.8291 78.1642 53.625 77.5856 53.625 76.917C53.625 76.2484 53.8291 75.6698 54.2373 75.1812C54.6455 74.6925 55.1289 74.4482 55.6875 74.4482H57.75V42.3545H57.6855C57.4277 49.1436 56.1709 55.3669 53.915 61.0244C51.6592 66.682 48.6836 71.1566 44.9883 74.4482C41.293 77.7399 37.2969 79.3857 33 79.3857C28.7031 79.3857 24.707 77.7399 21.0117 74.4482C17.3164 71.1566 14.3408 66.682 12.085 61.0244C9.8291 55.3669 8.57227 49.1436 8.31445 42.3545H8.25V74.4482H10.3125C10.8711 74.4482 11.3545 74.6925 11.7627 75.1812C12.1709 75.6698 12.375 76.2484 12.375 76.917C12.375 77.5856 12.1709 78.1642 11.7627 78.6528C11.3545 79.1414 10.8711 79.3857 10.3125 79.3857H2.0625C1.50391 79.3857 1.02051 79.1414 0.612305 78.6528C0.204102 78.1642 0 77.5856 0 76.917C0 76.2484 0.204102 75.6698 0.612305 75.1812C1.02051 74.6925 1.50391 74.4482 2.0625 74.4482H4.125V32.4795C4.125 31.8109 4.3291 31.2323 4.7373 30.7437C5.14551 30.255 5.62891 30.0107 6.1875 30.0107C6.74609 30.0107 7.22949 30.255 7.6377 30.7437C8.0459 31.2323 8.25 31.8109 8.25 32.4795V37.417H8.31445C8.57227 30.6279 9.8291 24.4046 12.085 18.7471C14.3408 13.0895 17.3164 8.61491 21.0117 5.32324C24.707 2.03158 28.7031 0.385742 33 0.385742C37.2969 0.385742 41.293 2.03158 44.9883 5.32324C48.6836 8.61491 51.6592 13.0895 53.915 18.7471C56.1709 24.4046 57.4277 30.6279 57.6855 37.417H57.75V32.4795C57.75 31.8109 57.9541 31.2323 58.3623 30.7437C58.7705 30.255 59.2539 30.0107 59.8125 30.0107C60.3711 30.0107 60.8545 30.255 61.2627 30.7437C61.6709 31.2323 61.875 31.8109 61.875 32.4795V74.4482H63.9375C64.4961 74.4482 64.9795 74.6925 65.3877 75.1812C65.7959 75.6698 66 76.2484 66 76.917C66 77.5856 65.7959 78.1642 65.3877 78.6528C64.9795 79.1414 64.4961 79.3857 63.9375 79.3857ZM33 10.2607C29.9922 10.2607 27.2314 11.5851 24.7178 14.2339C22.2041 16.8827 20.2061 20.4829 18.7236 25.0347C17.2412 29.5864 16.5 34.5368 16.5 39.8857C16.5 45.2347 17.2412 50.1851 18.7236 54.7368C20.2061 59.2886 22.2041 62.8888 24.7178 65.5376C27.2314 68.1864 29.9922 69.5107 33 69.5107C36.0078 69.5107 38.7686 68.1864 41.2822 65.5376C43.7959 62.8888 45.7939 59.2886 47.2764 54.7368C48.7588 50.1851 49.5 45.2347 49.5 39.8857C49.5 34.5368 48.7588 29.5864 47.2764 25.0347C45.7939 20.4829 43.7959 16.8827 41.2822 14.2339C38.7686 11.5851 36.0078 10.2607 33 10.2607ZM18.8525 31.2451C19.1318 30.6794 19.54 30.3065 20.0771 30.1265C20.6143 29.9465 21.1406 30.0107 21.6562 30.3193L46.4062 45.1318C46.8789 45.4919 47.1904 45.9933 47.3408 46.6362C47.4912 47.2791 47.4268 47.8963 47.1475 48.4878C46.8682 49.0793 46.46 49.465 45.9229 49.645C45.3857 49.825 44.8594 49.7607 44.3438 49.4521L19.5938 34.6396C19.0781 34.2796 18.7559 33.7653 18.627 33.0967C18.498 32.4281 18.5732 31.8109 18.8525 31.2451ZM42.2812 34.6396L25.7812 24.7646C25.3086 24.4046 24.9971 23.8903 24.8467 23.2217C24.6963 22.5531 24.7607 21.923 25.04 21.3315C25.3193 20.7401 25.7275 20.3672 26.2646 20.2129C26.8018 20.0586 27.3281 20.1357 27.8438 20.4443L44.3438 30.3193C44.8594 30.6794 45.1816 31.1808 45.3105 31.8237C45.4395 32.4666 45.3643 33.0838 45.085 33.6753C44.8057 34.2668 44.3975 34.6525 43.8604 34.8325C43.3232 35.0125 42.7969 34.9482 42.2812 34.6396ZM23.7188 45.1318L40.2188 55.0068C40.7344 55.3669 41.0566 55.8812 41.1855 56.5498C41.3145 57.2184 41.2393 57.8485 40.96 58.4399C40.6807 59.0314 40.2725 59.4043 39.7354 59.5586C39.1982 59.7129 38.6719 59.6357 38.1562 59.3271L21.6562 49.4521C21.1406 49.0921 20.8184 48.5778 20.6895 47.9092C20.5605 47.2406 20.6357 46.6234 20.915 46.0576C21.1943 45.4919 21.6025 45.119 22.1396 44.939C22.6768 44.759 23.2031 44.8232 23.7188 45.1318Z" fill="#646464"/>
</g>
<defs>
<clipPath id="clip0">
<rect width="66" height="79" fill="white"/>
</clipPath>
</defs>
</svg>
