<svg width="122" height="81" viewBox="0 0 122 81" fill="none" xmlns="http://www.w3.org/2000/svg">
<path d="M35.5837 71.0436H32.8782L31.3641 71.0226L29.6515 70.9593L28.0629 70.8538L26.4248 70.664L25.0348 70.3686L23.7441 69.989L22.8754 69.4827V75.5999C22.8754 76.4155 23.1815 77.0694 23.7937 77.5616C24.406 78.0538 25.1589 78.2999 26.0524 78.2999H32.4066C33.3002 78.2999 34.0531 78.0538 34.6653 77.5616C35.2776 77.0694 35.5837 76.4155 35.5837 75.5999V71.0436ZM86.417 71.0436H89.1225L90.6366 71.0226L92.3492 70.9593L93.9378 70.8538L95.576 70.664L96.9659 70.3686L98.2566 69.989L99.1254 69.4827V75.5999C99.1254 76.4155 98.8192 77.0694 98.207 77.5616C97.5947 78.0538 96.8418 78.2999 95.9483 78.2999H89.5941C88.7006 78.2999 87.9477 78.0538 87.3354 77.5616C86.7232 77.0694 86.417 76.4155 86.417 75.5999V71.0436ZM19.7479 35.0577C16.5046 35.0577 14.0887 35.6624 12.5002 36.8718C10.9117 38.0812 10.1339 39.7405 10.167 41.8499C10.2001 44.2687 10.8041 46.1108 11.979 47.3765C13.1538 48.6421 14.6679 49.2749 16.5212 49.2749C16.5212 50.6249 16.5377 51.7358 16.5708 52.6077C16.6039 53.4796 16.6701 54.4991 16.7694 55.6663C16.8687 56.8335 17.0259 57.7968 17.241 58.5561C17.4561 59.3155 17.7457 60.1522 18.1097 61.0663C18.4738 61.9804 18.9288 62.7187 19.4749 63.2812C20.021 63.8437 20.6911 64.4202 21.4854 65.0108C22.2797 65.6015 23.1898 66.0585 24.2157 66.3819C25.2416 66.7054 26.4413 66.9726 27.8147 67.1835C29.1882 67.3944 30.7188 67.4999 32.4066 67.4999H89.5941C91.2819 67.4999 92.8126 67.3944 94.186 67.1835C95.5594 66.9726 96.7591 66.7054 97.785 66.3819C98.811 66.0585 99.7211 65.6015 100.515 65.0108C101.31 64.4202 101.98 63.8437 102.526 63.2812C103.072 62.7187 103.527 61.9804 103.891 61.0663C104.255 60.1522 104.545 59.3155 104.76 58.5561C104.975 57.7968 105.132 56.8335 105.231 55.6663C105.331 54.4991 105.397 53.4796 105.43 52.6077C105.463 51.7358 105.48 50.6249 105.48 49.2749C107.333 49.2749 108.847 48.6421 110.022 47.3765C111.197 46.1108 111.801 44.2687 111.834 41.8499C111.867 39.7405 111.106 38.0812 109.55 36.8718C107.995 35.6624 105.595 35.0577 102.352 35.0577C100.73 35.0577 99.2081 35.5499 97.785 36.5343C96.362 37.5187 95.1292 38.8335 94.0867 40.4788C93.0442 42.1241 92.159 43.8538 91.4309 45.6679C90.7028 47.4819 90.1071 49.3733 89.6438 51.3421C80.8406 47.6015 71.3011 45.7311 61.0252 45.7311C50.7493 45.7311 41.2098 47.6015 32.4066 51.3421C31.9433 49.3452 31.3476 47.4468 30.6195 45.6468C29.8914 43.8468 29.0144 42.1241 27.9885 40.4788C26.9625 38.8335 25.738 37.5187 24.315 36.5343C22.8919 35.5499 21.3696 35.0577 19.7479 35.0577ZM35.5837 18.8999C33.4656 18.8999 31.6289 19.0054 30.0734 19.2163C28.518 19.4272 27.1859 19.7858 26.0773 20.2921C24.9686 20.7983 24.0585 21.3608 23.347 21.9796C22.6354 22.5983 22.0397 23.414 21.5599 24.4265C21.08 25.439 20.7242 26.4515 20.4925 27.464C20.2609 28.4765 20.0458 29.7421 19.8472 31.2608C21.1048 31.4015 22.2631 31.6265 23.3221 31.9358C24.3812 32.2452 25.2913 32.5757 26.0524 32.9272C26.8136 33.2788 27.55 33.7921 28.2615 34.4671C28.973 35.1421 29.5357 35.7116 29.9493 36.1757C30.363 36.6397 30.8346 37.3569 31.3641 38.3272C31.8936 39.2976 32.2825 40.0569 32.5307 40.6054C32.7789 41.1538 33.1595 42.0327 33.6725 43.2421C34.1854 44.4515 34.5743 45.3515 34.8391 45.9421C42.9142 43.3546 51.6429 42.0608 61.0252 42.0608C70.4075 42.0608 79.1362 43.3546 87.2113 45.9421C87.4761 45.3796 87.7987 44.6483 88.1793 43.7483C88.5599 42.8483 88.866 42.1382 89.0977 41.6179C89.3294 41.0976 89.6272 40.4577 89.9912 39.6983C90.3553 38.939 90.6862 38.3272 90.9841 37.8632C91.2819 37.3991 91.6625 36.8577 92.1259 36.239C92.5892 35.6202 93.0442 35.121 93.491 34.7413C93.9378 34.3616 94.4673 33.9538 95.0796 33.5179C95.6918 33.0819 96.3454 32.7304 97.0404 32.4632C97.7354 32.196 98.5214 31.9569 99.3984 31.746C100.275 31.5351 101.227 31.3733 102.253 31.2608C102.021 29.4608 101.74 27.9702 101.409 26.789C101.078 25.6077 100.565 24.4687 99.87 23.3718C99.175 22.2749 98.2732 21.4312 97.1645 20.8405C96.0558 20.2499 94.6162 19.7788 92.8457 19.4272C91.0751 19.0757 88.9322 18.8999 86.417 18.8999H35.5837Z" fill="#646464"/>
</svg>
