<svg width="123" height="85" viewBox="0 0 123 85" fill="none" xmlns="http://www.w3.org/2000/svg">
<path d="M17.9765 38.1613L14.3496 36.8332V31.1665L61.4996 14.1665L108.65 31.1665V36.8332L105.023 38.1613V61.8019C105.023 62.9235 104.522 63.7646 103.521 64.3254C102.52 64.8861 101.207 65.1665 99.5823 65.1665C97.9577 65.1665 96.6449 64.8861 95.6437 64.3254C94.6425 63.7646 94.1419 62.9235 94.1419 61.8019V42.0571L66.94 51.8853V73.1353C66.94 74.2568 66.4394 75.0979 65.4382 75.6587C64.437 76.2195 63.1242 76.4998 61.4996 76.4998C59.875 76.4998 58.5622 76.2195 57.561 75.6587C56.5598 75.0979 56.0592 74.2568 56.0592 73.1353V51.8853L28.8573 42.0571V61.8019C28.8573 62.9235 28.3567 63.7646 27.3555 64.3254C26.3543 64.8861 25.0415 65.1665 23.4169 65.1665C21.7924 65.1665 20.4795 64.8861 19.4783 64.3254C18.4771 63.7646 17.9765 62.9235 17.9765 61.8019V38.1613Z" fill="#646464"/>
</svg>
